<svg id="Capa_1" data-name="Capa 1" xmlns="http://www.w3.org/2000/svg" viewBox="0 0 98 98"><defs><style>.cls-1{fill:#1a1a1a;}.cls-2{fill:#ff1c00;}.cls-3{fill:#3fa9f5;}</style></defs><circle class="cls-1" cx="49" cy="49" r="49"/><path class="cls-2" d="M91.42,68.85a45.51,45.51,0,0,1-82.84,0Z" transform="translate(-1 -1)"/><path class="cls-3" d="M8.64,31.37a45.51,45.51,0,0,1,82.83,0Z" transform="translate(-1 -1)"/><circle class="cls-1" cx="49" cy="49" r="42.7"/><path class="cls-3" d="M48.63,55.39a6.51,6.51,0,0,0-1.67-3,6.94,6.94,0,0,0-4.05-2,22.25,22.25,0,0,0-2.46-.18c-.33,0-.65,0-1,0h-3.9V64.63c0,.36,0,.36.35.36h3.54a29.64,29.64,0,0,0,3.12-.16,7.87,7.87,0,0,0,1.78-.39,6.44,6.44,0,0,0,4.14-4.19,8.08,8.08,0,0,0,.38-2.13A9,9,0,0,0,48.63,55.39Zm-4,3.34a4.76,4.76,0,0,1-.24.84,2.85,2.85,0,0,1-1.5,1.59,4.79,4.79,0,0,1-1.29.38,10.39,10.39,0,0,1-1.85.11h-.08c-.09,0-.12,0-.13-.11V53.72c0-.17,0-.19.2-.19h.47a7.51,7.51,0,0,1,1.89.21A4.46,4.46,0,0,1,43,54a3,3,0,0,1,1.46,1.53,4.29,4.29,0,0,1,.31,1.22A6.78,6.78,0,0,1,44.68,58.73Z" transform="translate(-1 -1)"/><path class="cls-3" d="M57.84,60.61h-3.6c-.27,0-.28,0-.26.26a3,3,0,0,0,.19.88A1.9,1.9,0,0,0,55.71,63a3.23,3.23,0,0,0,1.48-.09A2,2,0,0,0,58.33,62l0-.08c.09-.14.1-.15.27-.08l1,.39,1.28.52.23.1a.07.07,0,0,1,0,.1,2.29,2.29,0,0,1-.1.23,3.51,3.51,0,0,1-1.38,1.4,5.26,5.26,0,0,1-1.84.65,8.87,8.87,0,0,1-1.54.11,7,7,0,0,1-2.66-.54,4.87,4.87,0,0,1-2.95-3.61A6,6,0,0,1,50.89,58a5.41,5.41,0,0,1,3.79-3.33,6.91,6.91,0,0,1,2.4-.13A5.38,5.38,0,0,1,58.8,55a4.87,4.87,0,0,1,2.43,2.66,6.76,6.76,0,0,1,.45,2.13c0,.22,0,.43,0,.65s0,.18-.18.19H57.84Zm-1.74-2h1.63c.42,0,.45.05.31-.41a1.91,1.91,0,0,0-1.61-1.45,2.45,2.45,0,0,0-.81,0,1.72,1.72,0,0,0-1.24.88,2.68,2.68,0,0,0-.27.68c-.06.25,0,.27.22.27Z" transform="translate(-1 -1)"/><path class="cls-2" d="M73.67,65.11h-.81c-.08,0-.12-.06-.1-.13a1.8,1.8,0,0,1,.08-.21c.71-1.66,1.42-3.33,2.12-5l3.57-8.4.31-.73a.23.23,0,0,1,.23-.16H80.7a.08.08,0,0,1,.07.1,1.17,1.17,0,0,1-.09.24c-.93,2.21-1.87,4.41-2.8,6.62l-3.09,7.3c-.18.4-.11.36-.55.36Z" transform="translate(-1 -1)"/><polygon class="cls-3" points="61.38 54.18 63.22 53.1 63.23 53.11 66.67 55.28 64.5 55.28 67.23 59.99 69.96 55.28 67.79 55.28 71.22 53.11 71.24 53.1 73.08 54.18 73.07 54.18 67.23 64.29 67.23 64.3 67.23 64.29 61.38 54.18 61.38 54.18"/><polygon class="cls-2" points="82.63 62.97 81.56 61.13 81.57 61.12 83.74 57.68 83.74 59.85 88.45 57.13 83.74 54.4 83.74 56.57 81.57 53.13 81.56 53.12 82.63 51.28 82.63 51.28 92.75 57.13 92.76 57.13 92.75 57.13 82.63 62.97 82.63 62.97"/><polygon class="cls-2" points="33.74 48.38 31.08 49.94 31.06 49.92 26.08 46.78 29.22 46.78 25.27 39.95 21.32 46.78 24.46 46.78 19.48 49.92 19.46 49.94 16.8 48.38 16.8 48.38 25.27 33.72 25.27 33.7 25.27 33.72 33.74 48.38 33.74 48.38"/><path class="cls-2" d="M39.44,50.2H39.3a.12.12,0,0,1-.11-.11.66.66,0,0,0,0-.14V35c0-.38,0-.37-.37-.37H35.72c-.08,0-.12,0-.13.12v.34q0,7.35,0,14.7h0v.41h3.87Z" transform="translate(-1 -1)"/><path class="cls-2" d="M48.59,45.86H44.85a.11.11,0,0,0-.1.11.71.71,0,0,0,0,.14,3.16,3.16,0,0,0,.2.91,1.93,1.93,0,0,0,1.54,1.24,3.17,3.17,0,0,0,1.37-.05,2,2,0,0,0,1.29-.92l.06-.1a.12.12,0,0,1,.16-.05l.19.07,2.11.85c.3.12.3.12.14.42A3.52,3.52,0,0,1,50.15,50a5.89,5.89,0,0,1-2,.55,9.05,9.05,0,0,1-1,.05,7.4,7.4,0,0,1-2.42-.44A5.11,5.11,0,0,1,42,48a4.69,4.69,0,0,1-.59-1.63,6.43,6.43,0,0,1,0-2.51A5.29,5.29,0,0,1,44,40.48a5.38,5.38,0,0,1,2.18-.7,6.76,6.76,0,0,1,2.2.1,4.75,4.75,0,0,1,3.56,3A6.52,6.52,0,0,1,52.45,45c0,.18,0,.37,0,.56v.16c0,.07,0,.11-.11.11H48.59Zm-1.72-2h1.91c.09,0,.13,0,.12-.15a.37.37,0,0,0,0-.11A2,2,0,0,0,47.23,42a2.33,2.33,0,0,0-1.11.09,1.72,1.72,0,0,0-.88.67,2.8,2.8,0,0,0-.35.79c-.08.31-.06.34.27.34Z" transform="translate(-1 -1)"/><polygon class="cls-3" points="15.37 35.8 16.44 37.64 16.43 37.66 14.26 41.09 14.26 38.92 9.55 41.65 14.26 44.38 14.26 42.21 16.43 45.64 16.44 45.66 15.37 47.5 15.37 47.49 5.25 41.65 5.24 41.65 5.25 41.65 15.37 35.8 15.37 35.8"/><polygon class="cls-3" points="86.77 33.16 87.54 32.27 87.55 32.27 89.75 32.79 88.61 33.18 90.89 35.16 91.47 32.19 90.33 32.58 91.74 30.82 91.75 30.81 92.91 31.05 92.91 31.05 91.67 37.42 91.67 37.42 91.67 37.42 86.77 33.17 86.77 33.16"/><polygon class="cls-2" points="11.29 65.05 10.52 65.95 10.51 65.95 8.31 65.43 9.45 65.04 7.16 63.06 6.58 66.03 7.72 65.63 6.31 67.4 6.31 67.4 5.15 67.17 5.15 67.17 6.38 60.8 6.38 60.79 6.38 60.8 11.29 65.05 11.29 65.05"/></svg>