<svg id="Capa_1" data-name="Capa 1" xmlns="http://www.w3.org/2000/svg" viewBox="0 0 669 669"><defs><style>.cls-1{fill:#202020;}.cls-2{fill:#762e9b;}.cls-3{fill:#80b3ff;}.cls-4{fill:#8dd35f;}.cls-5{fill:#ffe680;}</style></defs><rect class="cls-1" width="669" height="669"/><path class="cls-2" d="M1024.21,498.82c.29,27.89-18,52.05-43.35,60.91a64.23,64.23,0,0,1-9.08,2.44l-1.89-1.89a9.21,9.21,0,0,0,.32-2.41,9.4,9.4,0,0,0-9.39-9.39,9.16,9.16,0,0,0-2.41.32L948.66,539c0-1.28-.31-2.6-.43-3.83s-.56-1.64-1.15-1.83c-1-.32-2.4.22-3.44.13-4.15-.35-8.25-1-10.33-5.14-1.78-3.56-3.74-6.9-7.62-9,3.57-2.37,5.61-.79,7.5,1.14,1.67,1.7,3,3.82,4.92,5.15,2.73,1.92,5.77,1.46,8.67-.12,1.13-.61,2.05-1.2,1.88-2.64-.39-3.55-3.51-3.32-5.82-4.13-10.16-3.51-15.49-18.16-10.26-29.19a19.31,19.31,0,0,0,2-9.47c-.28-7,1.62-7.88,8-5.69a53.55,53.55,0,0,0,34.34.1c6.72-2.17,8.69-1.28,8.41,6-.1,2.62-.49,5,.78,7.55,6.84,13.56.6,30.66-17.38,32.22a17.77,17.77,0,0,1,2.8,10.11c0,2.18-.09,4.35,0,6.49.18,7.44.92,8,7.77,4.59.75-.38,1.48-.76,2.2-1.15,15.72-8.63,24.16-22.25,24.21-40.43,0-19.64-9.75-34.05-27.49-42.08-16.75-7.58-33-5.38-47.47,6.28-18.78,15.12-21.39,41-10.31,59.66l15.49,15.49,3.72,3.72,12.19,12.19a9.44,9.44,0,0,0-.4,2.73,9.3,9.3,0,0,0,1.5,5.09,62.79,62.79,0,0,1-11.17-2.24A64.18,64.18,0,0,1,959.83,435C994.05,434.71,1023.85,463.27,1024.21,498.82Z" transform="translate(-625.5 -205.5)"/><path class="cls-3" d="M904.07,562.6h42.53a0,0,0,0,1,0,0v42.53a0,0,0,0,1,0,0H907.67a3.59,3.59,0,0,1-3.59-3.59V562.6A0,0,0,0,1,904.07,562.6Z" transform="translate(58.38 -688.81) rotate(45)"/><path class="cls-4" d="M1021.4,588.33l-25.61,25.61-30.07-30.08,7.42-7.41,5.7,5.7a9.68,9.68,0,0,0-.4,2.75,9.4,9.4,0,1,0,9.4-9.4,9.16,9.16,0,0,0-2.41.32L979.6,570l16.19-16.21,25.61,25.61A6.3,6.3,0,0,1,1021.4,588.33Z" transform="translate(-625.5 -205.5)"/><path class="cls-5" d="M990.88,617.55l-25.6,25.6a6.31,6.31,0,0,1-8.93,0l-25.6-25.6L956.25,592V602.8a9.39,9.39,0,1,0,9.13,0V592Z" transform="translate(-625.5 -205.5)"/></svg>